<svg width="49" height="49" viewBox="0 0 49 49" fill="none" xmlns="http://www.w3.org/2000/svg">
<g clip-path="url(#clip0_18_179)">
<path fill-rule="evenodd" clip-rule="evenodd" d="M4.14257 3.8276C6.77569 1.36492 10.3234 0 14 0H35C38.6768 0 42.2243 1.36492 44.8574 3.8276C47.4946 6.29398 49 9.66514 49 13.2071C49 14.5787 48.4165 15.8683 47.4201 16.7999C46.4282 17.7279 45.1059 18.2306 43.75 18.2306H5.25C3.894 18.2306 2.57191 17.7279 1.57974 16.7999C0.583615 15.8683 0 14.5787 0 13.2071C0 9.66514 1.50549 6.29398 4.14257 3.8276ZM2.69357 23.625C1.24383 23.625 0.0685731 24.8003 0.0685731 26.25C0.0685731 27.6997 1.24383 28.875 2.69357 28.875H46.3064C47.7561 28.875 48.9314 27.6997 48.9314 26.25C48.9314 24.8003 47.7561 23.625 46.3064 23.625H2.69357ZM1.07129 35.0609C1.73586 34.4433 2.61148 34.1165 3.5 34.1165H8.75C9.00473 34.1165 9.25638 34.1721 9.48742 34.2794L18.9205 38.6624L23.3087 34.5845C23.6325 34.2837 24.0581 34.1165 24.5 34.1165H45.5C46.3886 34.1165 47.264 34.4433 47.9286 35.0609C48.5975 35.6825 49 36.554 49 37.4927C49 40.5877 47.6756 43.5277 45.366 45.674C43.0605 47.8167 39.9591 49 36.75 49H12.25C9.04085 49 5.9396 47.8167 3.63412 45.674C1.32427 43.5277 0 40.5877 0 37.4927C0 36.554 0.402399 35.6825 1.07129 35.0609Z" fill="white"/>
</g>
<defs>
<clipPath id="clip0_18_179">
<rect width="49" height="49" fill="white"/>
</clipPath>
</defs>
</svg>
