<svg width="71" height="71" viewBox="0 0 71 71" fill="none" xmlns="http://www.w3.org/2000/svg">
<g filter="url(#filter0_d_0_53)">
<circle cx="35.5" cy="31.5" r="31.5" fill="#2C2C2C"/>
</g>
<path d="M56.2519 31.4275C56.2519 29.8448 56.1209 28.6898 55.8373 27.492H37.3948V34.6358H48.2201C48.0019 36.4111 46.8234 39.0848 44.2043 40.8813L44.1676 41.1205L49.9987 45.5475L50.4027 45.587C54.113 42.2289 56.2519 37.288 56.2519 31.4275" fill="#4285F4"/>
<path d="M37.3936 50.25C42.6971 50.25 47.1494 48.5388 50.4014 45.5872L44.203 40.8815C42.5443 42.0151 40.3181 42.8065 37.3936 42.8065C32.1992 42.8065 27.7905 39.4485 26.2189 34.8071L25.9886 34.8262L19.9253 39.4249L19.846 39.6409C23.0761 45.9293 29.711 50.25 37.3936 50.25Z" fill="#34A853"/>
<path d="M26.2201 34.8072C25.8054 33.6094 25.5654 32.326 25.5654 31C25.5654 29.6738 25.8054 28.3905 26.1983 27.1927L26.1873 26.9376L20.048 22.2651L19.8471 22.3588C18.5158 24.9682 17.7519 27.8986 17.7519 31C17.7519 34.1013 18.5158 37.0315 19.8471 39.641L26.2201 34.8072" fill="#FBBC05"/>
<path d="M37.3937 19.1933C41.0821 19.1933 43.5702 20.7547 44.9889 22.0595L50.5325 16.755C47.1279 13.6536 42.6972 11.75 37.3937 11.75C29.7111 11.75 23.0761 16.0705 19.846 22.3588L26.1972 27.1928C27.7906 22.5514 32.1993 19.1933 37.3937 19.1933" fill="#EB4335"/>
<defs>
<filter id="filter0_d_0_53" x="0" y="0" width="71" height="71" filterUnits="userSpaceOnUse" color-interpolation-filters="sRGB">
<feFlood flood-opacity="0" result="BackgroundImageFix"/>
<feColorMatrix in="SourceAlpha" type="matrix" values="0 0 0 0 0 0 0 0 0 0 0 0 0 0 0 0 0 0 127 0" result="hardAlpha"/>
<feOffset dy="4"/>
<feGaussianBlur stdDeviation="2"/>
<feComposite in2="hardAlpha" operator="out"/>
<feColorMatrix type="matrix" values="0 0 0 0 0 0 0 0 0 0 0 0 0 0 0 0 0 0 0.25 0"/>
<feBlend mode="normal" in2="BackgroundImageFix" result="effect1_dropShadow_0_53"/>
<feBlend mode="normal" in="SourceGraphic" in2="effect1_dropShadow_0_53" result="shape"/>
</filter>
</defs>
</svg>
