<svg width="299" height="638" viewBox="0 0 299 638" fill="none" xmlns="http://www.w3.org/2000/svg">
<g clip-path="url(#clip0_9_145)">
<mask id="mask0_9_145" style="mask-type:alpha" maskUnits="userSpaceOnUse" x="12" y="73" width="314" height="669">
<rect x="12" y="73" width="314" height="669" fill="url(#paint0_linear_9_145)"/>
</mask>
<g mask="url(#mask0_9_145)">
<path d="M74.2031 -852V-895.839H73.9775L60.1416 -886.289V-896.516L74.1655 -906.253H85.4448V-852H74.2031ZM117.29 -850.797C106.913 -850.797 98.7544 -856.963 97.2505 -865.836H108.455C109.545 -862.189 113.117 -859.783 117.478 -859.783C124.96 -859.783 129.509 -866.889 129.208 -879.333C129.171 -879.333 129.096 -879.333 129.096 -879.333H129.021H128.983C127.028 -874.032 121.689 -870.46 114.545 -870.46C104.319 -870.46 96.5361 -878.055 96.5361 -888.357C96.5361 -899.523 105.334 -907.494 117.44 -907.494C125.261 -907.494 131.765 -903.998 135.525 -897.568C138.533 -892.944 140.074 -886.853 140.074 -879.597C140.074 -861.625 131.577 -850.797 117.29 -850.797ZM117.516 -878.995C123.155 -878.995 127.441 -883.131 127.441 -888.62C127.441 -894.147 123.118 -898.433 117.591 -898.433C112.026 -898.433 107.627 -894.147 107.627 -888.695C107.627 -883.131 111.876 -878.995 117.516 -878.995ZM168.385 -850.797C155.226 -850.797 146.391 -857.301 146.391 -866.701C146.391 -873.844 151.579 -879.371 159.136 -880.612V-880.837C152.82 -882.304 148.571 -887.154 148.571 -893.132C148.571 -901.403 156.768 -907.457 168.385 -907.457C180.041 -907.457 188.162 -901.441 188.162 -893.094C188.162 -887.191 183.951 -882.341 177.634 -880.837V-880.612C185.229 -879.333 190.38 -873.807 190.38 -866.663C190.38 -857.264 181.432 -850.797 168.385 -850.797ZM168.385 -859.068C174.363 -859.068 178.499 -862.64 178.499 -867.528C178.499 -872.416 174.363 -875.987 168.385 -875.987C162.407 -875.987 158.234 -872.416 158.234 -867.528C158.234 -862.64 162.407 -859.068 168.385 -859.068ZM168.385 -884.259C173.386 -884.259 176.958 -887.417 176.958 -891.741C176.958 -896.102 173.386 -899.26 168.385 -899.26C163.347 -899.26 159.813 -896.064 159.813 -891.741C159.813 -887.417 163.347 -884.259 168.385 -884.259ZM217.225 -850.797C206.848 -850.797 198.689 -856.963 197.185 -865.836H208.389C209.479 -862.189 213.051 -859.783 217.413 -859.783C224.895 -859.783 229.444 -866.889 229.143 -879.333C229.105 -879.333 229.03 -879.333 229.03 -879.333H228.955H228.917C226.962 -874.032 221.624 -870.46 214.48 -870.46C204.253 -870.46 196.471 -878.055 196.471 -888.357C196.471 -899.523 205.269 -907.494 217.375 -907.494C225.195 -907.494 231.7 -903.998 235.459 -897.568C238.467 -892.944 240.009 -886.853 240.009 -879.597C240.009 -861.625 231.512 -850.797 217.225 -850.797ZM217.45 -878.995C223.09 -878.995 227.376 -883.131 227.376 -888.62C227.376 -894.147 223.052 -898.433 217.525 -898.433C211.961 -898.433 207.562 -894.147 207.562 -888.695C207.562 -883.131 211.811 -878.995 217.45 -878.995ZM74.2407 -668V-711.839H74.0151L60.1792 -702.289V-712.516L74.2031 -722.253H85.4824V-668H74.2407ZM117.328 -666.797C106.951 -666.797 98.792 -672.963 97.2881 -681.836H108.492C109.583 -678.189 113.154 -675.783 117.516 -675.783C124.998 -675.783 129.547 -682.889 129.246 -695.333C129.208 -695.333 129.133 -695.333 129.133 -695.333H129.058H129.021C127.065 -690.032 121.727 -686.46 114.583 -686.46C104.356 -686.46 96.5737 -694.055 96.5737 -704.357C96.5737 -715.523 105.372 -723.494 117.478 -723.494C125.298 -723.494 131.803 -719.998 135.562 -713.568C138.57 -708.944 140.112 -702.853 140.112 -695.597C140.112 -677.625 131.615 -666.797 117.328 -666.797ZM117.553 -694.995C123.193 -694.995 127.479 -699.131 127.479 -704.62C127.479 -710.147 123.155 -714.433 117.628 -714.433C112.064 -714.433 107.665 -710.147 107.665 -704.695C107.665 -699.131 111.914 -694.995 117.553 -694.995ZM167.032 -666.797C156.655 -666.797 148.496 -672.963 146.992 -681.836H158.196C159.287 -678.189 162.858 -675.783 167.22 -675.783C174.702 -675.783 179.251 -682.889 178.95 -695.333C178.913 -695.333 178.837 -695.333 178.837 -695.333H178.762H178.725C176.77 -690.032 171.431 -686.46 164.287 -686.46C154.061 -686.46 146.278 -694.055 146.278 -704.357C146.278 -715.523 155.076 -723.494 167.182 -723.494C175.002 -723.494 181.507 -719.998 185.267 -713.568C188.274 -708.944 189.816 -702.853 189.816 -695.597C189.816 -677.625 181.319 -666.797 167.032 -666.797ZM167.257 -694.995C172.897 -694.995 177.183 -699.131 177.183 -704.62C177.183 -710.147 172.859 -714.433 167.333 -714.433C161.768 -714.433 157.369 -710.147 157.369 -704.695C157.369 -699.131 161.618 -694.995 167.257 -694.995ZM218.089 -666.797C204.441 -666.797 196.132 -677.663 196.132 -695.221C196.132 -712.741 204.517 -723.494 218.089 -723.494C231.662 -723.494 240.009 -712.779 240.009 -695.258C240.009 -677.738 231.737 -666.797 218.089 -666.797ZM218.089 -675.896C224.556 -675.896 228.466 -682.851 228.466 -695.221C228.466 -707.478 224.519 -714.396 218.089 -714.396C211.698 -714.396 207.675 -707.44 207.675 -695.221C207.675 -682.889 211.623 -675.896 218.089 -675.896ZM81.0083 -484V-527.839H80.7827L66.9468 -518.289V-528.516L80.9707 -538.253H92.25V-484H81.0083ZM124.095 -482.797C113.718 -482.797 105.56 -488.963 104.056 -497.836H115.26C116.35 -494.189 119.922 -491.783 124.283 -491.783C131.765 -491.783 136.314 -498.889 136.014 -511.333C135.976 -511.333 135.901 -511.333 135.901 -511.333H135.826H135.788C133.833 -506.032 128.494 -502.46 121.351 -502.46C111.124 -502.46 103.341 -510.055 103.341 -520.357C103.341 -531.523 112.139 -539.494 124.246 -539.494C132.066 -539.494 138.57 -535.998 142.33 -529.568C145.338 -524.944 146.879 -518.853 146.879 -511.597C146.879 -493.625 138.382 -482.797 124.095 -482.797ZM124.321 -510.995C129.96 -510.995 134.247 -515.131 134.247 -520.62C134.247 -526.147 129.923 -530.433 124.396 -530.433C118.832 -530.433 114.433 -526.147 114.433 -520.695C114.433 -515.131 118.681 -510.995 124.321 -510.995ZM173.799 -482.797C163.422 -482.797 155.264 -488.963 153.76 -497.836H164.964C166.054 -494.189 169.626 -491.783 173.987 -491.783C181.469 -491.783 186.019 -498.889 185.718 -511.333C185.68 -511.333 185.605 -511.333 185.605 -511.333H185.53H185.492C183.537 -506.032 178.198 -502.46 171.055 -502.46C160.828 -502.46 153.045 -510.055 153.045 -520.357C153.045 -531.523 161.843 -539.494 173.95 -539.494C181.77 -539.494 188.274 -535.998 192.034 -529.568C195.042 -524.944 196.583 -518.853 196.583 -511.597C196.583 -493.625 188.086 -482.797 173.799 -482.797ZM174.025 -510.995C179.665 -510.995 183.951 -515.131 183.951 -520.62C183.951 -526.147 179.627 -530.433 174.1 -530.433C168.536 -530.433 164.137 -526.147 164.137 -520.695C164.137 -515.131 168.385 -510.995 174.025 -510.995ZM216.811 -484V-527.839H216.585L202.75 -518.289V-528.516L216.773 -538.253H228.053V-484H216.811ZM76.271 -300V-343.839H76.0454L62.2095 -334.289V-344.516L76.2334 -354.253H87.5127V-300H76.271ZM119.358 -298.797C108.981 -298.797 100.822 -304.963 99.3184 -313.836H110.522C111.613 -310.189 115.185 -307.783 119.546 -307.783C127.028 -307.783 131.577 -314.889 131.276 -327.333C131.239 -327.333 131.164 -327.333 131.164 -327.333H131.088H131.051C129.096 -322.032 123.757 -318.46 116.613 -318.46C106.387 -318.46 98.604 -326.055 98.604 -336.357C98.604 -347.523 107.402 -355.494 119.508 -355.494C127.329 -355.494 133.833 -351.998 137.593 -345.568C140.601 -340.944 142.142 -334.853 142.142 -327.597C142.142 -309.625 133.645 -298.797 119.358 -298.797ZM119.583 -326.995C125.223 -326.995 129.509 -331.131 129.509 -336.62C129.509 -342.147 125.186 -346.433 119.659 -346.433C114.094 -346.433 109.695 -342.147 109.695 -336.695C109.695 -331.131 113.944 -326.995 119.583 -326.995ZM169.062 -298.797C158.685 -298.797 150.526 -304.963 149.022 -313.836H160.227C161.317 -310.189 164.889 -307.783 169.25 -307.783C176.732 -307.783 181.281 -314.889 180.98 -327.333C180.943 -327.333 180.868 -327.333 180.868 -327.333H180.792H180.755C178.8 -322.032 173.461 -318.46 166.317 -318.46C156.091 -318.46 148.308 -326.055 148.308 -336.357C148.308 -347.523 157.106 -355.494 169.212 -355.494C177.033 -355.494 183.537 -351.998 187.297 -345.568C190.305 -340.944 191.846 -334.853 191.846 -327.597C191.846 -309.625 183.349 -298.797 169.062 -298.797ZM169.288 -326.995C174.927 -326.995 179.213 -331.131 179.213 -336.62C179.213 -342.147 174.89 -346.433 169.363 -346.433C163.798 -346.433 159.399 -342.147 159.399 -336.695C159.399 -331.131 163.648 -326.995 169.288 -326.995ZM197.862 -337.936C197.862 -348.2 206.058 -355.457 217.901 -355.457C229.331 -355.457 237.189 -348.839 237.189 -339.778C237.189 -333.011 232.677 -327.935 226.699 -321.995L213.465 -309.249V-309.023H237.941V-300H198.501V-307.632L218.954 -327.333C224.443 -332.823 226.135 -335.567 226.135 -339.327C226.135 -343.388 222.563 -346.621 217.525 -346.621C212.262 -346.621 208.389 -342.937 208.389 -337.936V-337.748H197.862V-337.936ZM75.0679 -116V-159.839H74.8423L61.0063 -150.289V-160.516L75.0303 -170.253H86.3096V-116H75.0679ZM118.155 -114.797C107.778 -114.797 99.6191 -120.963 98.1152 -129.836H109.319C110.41 -126.189 113.981 -123.783 118.343 -123.783C125.825 -123.783 130.374 -130.889 130.073 -143.333C130.036 -143.333 129.96 -143.333 129.96 -143.333H129.885H129.848C127.893 -138.032 122.554 -134.46 115.41 -134.46C105.184 -134.46 97.4009 -142.055 97.4009 -152.357C97.4009 -163.523 106.199 -171.494 118.305 -171.494C126.125 -171.494 132.63 -167.998 136.39 -161.568C139.397 -156.944 140.939 -150.853 140.939 -143.597C140.939 -125.625 132.442 -114.797 118.155 -114.797ZM118.38 -142.995C124.02 -142.995 128.306 -147.131 128.306 -152.62C128.306 -158.147 123.982 -162.433 118.456 -162.433C112.891 -162.433 108.492 -158.147 108.492 -152.695C108.492 -147.131 112.741 -142.995 118.38 -142.995ZM167.859 -114.797C157.482 -114.797 149.323 -120.963 147.819 -129.836H159.023C160.114 -126.189 163.686 -123.783 168.047 -123.783C175.529 -123.783 180.078 -130.889 179.777 -143.333C179.74 -143.333 179.665 -143.333 179.665 -143.333H179.589H179.552C177.597 -138.032 172.258 -134.46 165.114 -134.46C154.888 -134.46 147.105 -142.055 147.105 -152.357C147.105 -163.523 155.903 -171.494 168.009 -171.494C175.83 -171.494 182.334 -167.998 186.094 -161.568C189.102 -156.944 190.643 -150.853 190.643 -143.597C190.643 -125.625 182.146 -114.797 167.859 -114.797ZM168.084 -142.995C173.724 -142.995 178.01 -147.131 178.01 -152.62C178.01 -158.147 173.687 -162.433 168.16 -162.433C162.595 -162.433 158.196 -158.147 158.196 -152.695C158.196 -147.131 162.445 -142.995 168.084 -142.995ZM210.871 -139.687V-147.883H217.45C222.639 -147.883 226.135 -150.966 226.135 -155.44C226.135 -159.839 223.015 -162.734 217.375 -162.734C212.111 -162.734 208.615 -159.613 208.314 -154.876H197.862C198.275 -164.915 206.096 -171.457 217.864 -171.457C229.143 -171.457 236.851 -165.667 236.851 -156.981C236.851 -150.327 232.301 -145.514 225.646 -144.311V-144.085C233.73 -143.409 238.956 -138.521 238.956 -131.001C238.956 -121.264 230.121 -114.797 217.601 -114.797C205.344 -114.797 197.335 -121.527 196.809 -131.528H207.675C208.013 -126.941 211.773 -123.933 217.751 -123.933C223.428 -123.933 227.414 -127.129 227.414 -131.716C227.414 -136.679 223.691 -139.687 217.563 -139.687H210.871ZM74.3535 68V24.1611H74.1279L60.292 33.7109V23.4844L74.3159 13.7466H85.5952V68H74.3535ZM117.44 69.2031C107.063 69.2031 98.9048 63.0371 97.4009 54.1641H108.605C109.695 57.811 113.267 60.2173 117.628 60.2173C125.11 60.2173 129.66 53.1113 129.359 40.6665C129.321 40.6665 129.246 40.6665 129.246 40.6665H129.171H129.133C127.178 45.9678 121.839 49.5396 114.696 49.5396C104.469 49.5396 96.6865 41.9448 96.6865 31.6431C96.6865 20.4766 105.484 12.5059 117.591 12.5059C125.411 12.5059 131.916 16.0024 135.675 22.4316C138.683 27.0562 140.225 33.147 140.225 40.4033C140.225 58.375 131.728 69.2031 117.44 69.2031ZM117.666 41.0049C123.306 41.0049 127.592 36.8691 127.592 31.3799C127.592 25.853 123.268 21.5669 117.741 21.5669C112.177 21.5669 107.778 25.853 107.778 31.3047C107.778 36.8691 112.026 41.0049 117.666 41.0049ZM167.145 69.2031C156.768 69.2031 148.609 63.0371 147.105 54.1641H158.309C159.399 57.811 162.971 60.2173 167.333 60.2173C174.814 60.2173 179.364 53.1113 179.063 40.6665C179.025 40.6665 178.95 40.6665 178.95 40.6665H178.875H178.837C176.882 45.9678 171.543 49.5396 164.4 49.5396C154.173 49.5396 146.391 41.9448 146.391 31.6431C146.391 20.4766 155.188 12.5059 167.295 12.5059C175.115 12.5059 181.62 16.0024 185.379 22.4316C188.387 27.0562 189.929 33.147 189.929 40.4033C189.929 58.375 181.432 69.2031 167.145 69.2031ZM167.37 41.0049C173.01 41.0049 177.296 36.8691 177.296 31.3799C177.296 25.853 172.972 21.5669 167.445 21.5669C161.881 21.5669 157.482 25.853 157.482 31.3047C157.482 36.8691 161.73 41.0049 167.37 41.0049ZM222.827 68V58.3374H195.832V48.6748C200.569 39.6514 206.472 30.1392 217.601 13.7466H233.617V49.2388H240.686V58.3374H233.617V68H222.827ZM205.795 49.2764V49.5771H223.052V21.7925H222.827C214.931 33.3726 210.194 40.7793 205.795 49.2764ZM75.4438 252V208.161H75.2183L61.3823 217.711V207.484L75.4062 197.747H86.6855V252H75.4438ZM118.531 253.203C108.154 253.203 99.9951 247.037 98.4912 238.164H109.695C110.786 241.811 114.357 244.217 118.719 244.217C126.201 244.217 130.75 237.111 130.449 224.667C130.412 224.667 130.336 224.667 130.336 224.667H130.261H130.224C128.269 229.968 122.93 233.54 115.786 233.54C105.56 233.54 97.7769 225.945 97.7769 215.643C97.7769 204.477 106.575 196.506 118.681 196.506C126.501 196.506 133.006 200.002 136.766 206.432C139.773 211.056 141.315 217.147 141.315 224.403C141.315 242.375 132.818 253.203 118.531 253.203ZM118.756 225.005C124.396 225.005 128.682 220.869 128.682 215.38C128.682 209.853 124.358 205.567 118.832 205.567C113.267 205.567 108.868 209.853 108.868 215.305C108.868 220.869 113.117 225.005 118.756 225.005ZM168.235 253.203C157.858 253.203 149.699 247.037 148.195 238.164H159.399C160.49 241.811 164.062 244.217 168.423 244.217C175.905 244.217 180.454 237.111 180.153 224.667C180.116 224.667 180.041 224.667 180.041 224.667H179.965H179.928C177.973 229.968 172.634 233.54 165.49 233.54C155.264 233.54 147.481 225.945 147.481 215.643C147.481 204.477 156.279 196.506 168.385 196.506C176.206 196.506 182.71 200.002 186.47 206.432C189.478 211.056 191.019 217.147 191.019 224.403C191.019 242.375 182.522 253.203 168.235 253.203ZM168.46 225.005C174.1 225.005 178.386 220.869 178.386 215.38C178.386 209.853 174.062 205.567 168.536 205.567C162.971 205.567 158.572 209.853 158.572 215.305C158.572 220.869 162.821 225.005 168.46 225.005ZM218.541 253.203C206.885 253.203 198.501 246.285 198.163 236.472H208.652C209.292 241.059 213.352 244.217 218.616 244.217C224.556 244.217 228.654 240.082 228.654 234.179C228.654 228.163 224.556 223.952 218.691 223.952C214.593 223.952 211.059 225.832 209.179 228.953H199.027L201.697 197.747H236.211V206.77H210.607L209.367 221.621H209.592C211.811 217.974 216.134 215.681 221.661 215.681C232.038 215.681 239.482 223.313 239.482 233.878C239.482 245.383 230.985 253.203 218.541 253.203ZM74.5415 436V392.161H74.3159L60.48 401.711V391.484L74.5039 381.747H85.7832V436H74.5415ZM117.628 437.203C107.251 437.203 99.0928 431.037 97.5889 422.164H108.793C109.883 425.811 113.455 428.217 117.816 428.217C125.298 428.217 129.848 421.111 129.547 408.667C129.509 408.667 129.434 408.667 129.434 408.667H129.359H129.321C127.366 413.968 122.027 417.54 114.884 417.54C104.657 417.54 96.8745 409.945 96.8745 399.643C96.8745 388.477 105.672 380.506 117.779 380.506C125.599 380.506 132.104 384.002 135.863 390.432C138.871 395.056 140.413 401.147 140.413 408.403C140.413 426.375 131.916 437.203 117.628 437.203ZM117.854 409.005C123.494 409.005 127.78 404.869 127.78 399.38C127.78 393.853 123.456 389.567 117.929 389.567C112.365 389.567 107.966 393.853 107.966 399.305C107.966 404.869 112.214 409.005 117.854 409.005ZM167.333 437.203C156.956 437.203 148.797 431.037 147.293 422.164H158.497C159.587 425.811 163.159 428.217 167.521 428.217C175.002 428.217 179.552 421.111 179.251 408.667C179.213 408.667 179.138 408.667 179.138 408.667H179.063H179.025C177.07 413.968 171.731 417.54 164.588 417.54C154.361 417.54 146.579 409.945 146.579 399.643C146.579 388.477 155.376 380.506 167.483 380.506C175.303 380.506 181.808 384.002 185.567 390.432C188.575 395.056 190.117 401.147 190.117 408.403C190.117 426.375 181.62 437.203 167.333 437.203ZM167.558 409.005C173.198 409.005 177.484 404.869 177.484 399.38C177.484 393.853 173.16 389.567 167.633 389.567C162.069 389.567 157.67 393.853 157.67 399.305C157.67 404.869 161.918 409.005 167.558 409.005ZM219.029 437.241C211.247 437.241 204.817 433.707 201.02 427.24C198.012 422.653 196.471 416.524 196.471 409.306C196.471 391.334 205.193 380.506 219.217 380.506C229.557 380.506 237.64 386.634 239.144 395.507H227.978C226.887 391.898 223.391 389.492 219.142 389.492C211.585 389.492 206.998 396.748 207.261 409.005H207.487C209.667 403.704 215.006 400.169 221.924 400.169C232.226 400.169 239.858 407.764 239.858 418.066C239.858 429.232 231.173 437.241 219.029 437.241ZM218.917 428.18C224.443 428.18 228.805 423.856 228.805 418.404C228.805 412.802 224.631 408.704 218.954 408.704C213.314 408.704 209.028 412.802 209.028 418.292C209.028 423.818 213.352 428.18 218.917 428.18ZM77.9629 620V576.161H77.7373L63.9014 585.711V575.484L77.9253 565.747H89.2046V620H77.9629ZM121.05 621.203C110.673 621.203 102.514 615.037 101.01 606.164H112.214C113.305 609.811 116.876 612.217 121.238 612.217C128.72 612.217 133.269 605.111 132.968 592.667C132.931 592.667 132.855 592.667 132.855 592.667H132.78H132.743C130.788 597.968 125.449 601.54 118.305 601.54C108.079 601.54 100.296 593.945 100.296 583.643C100.296 572.477 109.094 564.506 121.2 564.506C129.021 564.506 135.525 568.002 139.285 574.432C142.292 579.056 143.834 585.147 143.834 592.403C143.834 610.375 135.337 621.203 121.05 621.203ZM121.275 593.005C126.915 593.005 131.201 588.869 131.201 583.38C131.201 577.853 126.877 573.567 121.351 573.567C115.786 573.567 111.387 577.853 111.387 583.305C111.387 588.869 115.636 593.005 121.275 593.005ZM170.754 621.203C160.377 621.203 152.218 615.037 150.714 606.164H161.918C163.009 609.811 166.581 612.217 170.942 612.217C178.424 612.217 182.973 605.111 182.672 592.667C182.635 592.667 182.56 592.667 182.56 592.667H182.484H182.447C180.492 597.968 175.153 601.54 168.009 601.54C157.783 601.54 150 593.945 150 583.643C150 572.477 158.798 564.506 170.904 564.506C178.725 564.506 185.229 568.002 188.989 574.432C191.997 579.056 193.538 585.147 193.538 592.403C193.538 610.375 185.041 621.203 170.754 621.203ZM170.979 593.005C176.619 593.005 180.905 588.869 180.905 583.38C180.905 577.853 176.582 573.567 171.055 573.567C165.49 573.567 161.091 577.853 161.091 583.305C161.091 588.869 165.34 593.005 170.979 593.005ZM202.035 620L225.383 574.996V574.77H197.787V565.747H236.587V574.883L213.954 620H202.035ZM74.2031 804V760.161H73.9775L60.1416 769.711V759.484L74.1655 749.747H85.4448V804H74.2031ZM117.29 805.203C106.913 805.203 98.7544 799.037 97.2505 790.164H108.455C109.545 793.811 113.117 796.217 117.478 796.217C124.96 796.217 129.509 789.111 129.208 776.667C129.171 776.667 129.096 776.667 129.096 776.667H129.021H128.983C127.028 781.968 121.689 785.54 114.545 785.54C104.319 785.54 96.5361 777.945 96.5361 767.643C96.5361 756.477 105.334 748.506 117.44 748.506C125.261 748.506 131.765 752.002 135.525 758.432C138.533 763.056 140.074 769.147 140.074 776.403C140.074 794.375 131.577 805.203 117.29 805.203ZM117.516 777.005C123.155 777.005 127.441 772.869 127.441 767.38C127.441 761.853 123.118 757.567 117.591 757.567C112.026 757.567 107.627 761.853 107.627 767.305C107.627 772.869 111.876 777.005 117.516 777.005ZM166.994 805.203C156.617 805.203 148.458 799.037 146.955 790.164H158.159C159.249 793.811 162.821 796.217 167.182 796.217C174.664 796.217 179.213 789.111 178.913 776.667C178.875 776.667 178.8 776.667 178.8 776.667H178.725H178.687C176.732 781.968 171.393 785.54 164.25 785.54C154.023 785.54 146.24 777.945 146.24 767.643C146.24 756.477 155.038 748.506 167.145 748.506C174.965 748.506 181.469 752.002 185.229 758.432C188.237 763.056 189.778 769.147 189.778 776.403C189.778 794.375 181.281 805.203 166.994 805.203ZM167.22 777.005C172.859 777.005 177.146 772.869 177.146 767.38C177.146 761.853 172.822 757.567 167.295 757.567C161.73 757.567 157.332 761.853 157.332 767.305C157.332 772.869 161.58 777.005 167.22 777.005ZM218.089 805.203C204.93 805.203 196.095 798.699 196.095 789.299C196.095 782.156 201.283 776.629 208.84 775.388V775.163C202.524 773.696 198.275 768.846 198.275 762.868C198.275 754.597 206.472 748.543 218.089 748.543C229.745 748.543 237.866 754.559 237.866 762.906C237.866 768.809 233.655 773.659 227.338 775.163V775.388C234.933 776.667 240.084 782.193 240.084 789.337C240.084 798.736 231.136 805.203 218.089 805.203ZM218.089 796.932C224.067 796.932 228.203 793.36 228.203 788.472C228.203 783.584 224.067 780.013 218.089 780.013C212.111 780.013 207.938 783.584 207.938 788.472C207.938 793.36 212.111 796.932 218.089 796.932ZM218.089 771.741C223.09 771.741 226.662 768.583 226.662 764.259C226.662 759.898 223.09 756.74 218.089 756.74C213.051 756.74 209.517 759.936 209.517 764.259C209.517 768.583 213.051 771.741 218.089 771.741ZM74.4663 988V944.161H74.2407L60.4048 953.711V943.484L74.4287 933.747H85.708V988H74.4663ZM117.553 989.203C107.176 989.203 99.0176 983.037 97.5137 974.164H108.718C109.808 977.811 113.38 980.217 117.741 980.217C125.223 980.217 129.772 973.111 129.472 960.667C129.434 960.667 129.359 960.667 129.359 960.667H129.284H129.246C127.291 965.968 121.952 969.54 114.809 969.54C104.582 969.54 96.7993 961.945 96.7993 951.643C96.7993 940.477 105.597 932.506 117.704 932.506C125.524 932.506 132.028 936.002 135.788 942.432C138.796 947.056 140.337 953.147 140.337 960.403C140.337 978.375 131.84 989.203 117.553 989.203ZM117.779 961.005C123.418 961.005 127.705 956.869 127.705 951.38C127.705 945.853 123.381 941.567 117.854 941.567C112.29 941.567 107.891 945.853 107.891 951.305C107.891 956.869 112.139 961.005 117.779 961.005ZM167.257 989.203C156.88 989.203 148.722 983.037 147.218 974.164H158.422C159.512 977.811 163.084 980.217 167.445 980.217C174.927 980.217 179.477 973.111 179.176 960.667C179.138 960.667 179.063 960.667 179.063 960.667H178.988H178.95C176.995 965.968 171.656 969.54 164.513 969.54C154.286 969.54 146.503 961.945 146.503 951.643C146.503 940.477 155.301 932.506 167.408 932.506C175.228 932.506 181.732 936.002 185.492 942.432C188.5 947.056 190.042 953.147 190.042 960.403C190.042 978.375 181.544 989.203 167.257 989.203ZM167.483 961.005C173.123 961.005 177.409 956.869 177.409 951.38C177.409 945.853 173.085 941.567 167.558 941.567C161.994 941.567 157.595 945.853 157.595 951.305C157.595 956.869 161.843 961.005 167.483 961.005ZM216.961 989.203C206.584 989.203 198.426 983.037 196.922 974.164H208.126C209.216 977.811 212.788 980.217 217.149 980.217C224.631 980.217 229.181 973.111 228.88 960.667C228.842 960.667 228.767 960.667 228.767 960.667H228.692H228.654C226.699 965.968 221.36 969.54 214.217 969.54C203.99 969.54 196.208 961.945 196.208 951.643C196.208 940.477 205.005 932.506 217.112 932.506C224.932 932.506 231.437 936.002 235.196 942.432C238.204 947.056 239.746 953.147 239.746 960.403C239.746 978.375 231.249 989.203 216.961 989.203ZM217.187 961.005C222.827 961.005 227.113 956.869 227.113 951.38C227.113 945.853 222.789 941.567 217.262 941.567C211.698 941.567 207.299 945.853 207.299 951.305C207.299 956.869 211.547 961.005 217.187 961.005ZM54.8403 1134.06C54.8403 1123.8 63.0366 1116.54 74.8799 1116.54C86.3096 1116.54 94.1675 1123.16 94.1675 1132.22C94.1675 1138.99 89.6558 1144.06 83.6777 1150.01L70.4434 1162.75V1162.98H94.9194V1172H55.4795V1164.37L75.9326 1144.67C81.4219 1139.18 83.1138 1136.43 83.1138 1132.67C83.1138 1128.61 79.542 1125.38 74.5039 1125.38C69.2402 1125.38 65.3677 1129.06 65.3677 1134.06V1134.25H54.8403V1134.06ZM122.967 1173.2C109.319 1173.2 101.01 1162.34 101.01 1144.78C101.01 1127.26 109.395 1116.51 122.967 1116.51C136.54 1116.51 144.887 1127.22 144.887 1144.74C144.887 1162.26 136.615 1173.2 122.967 1173.2ZM122.967 1164.1C129.434 1164.1 133.344 1157.15 133.344 1144.78C133.344 1132.52 129.396 1125.6 122.967 1125.6C116.576 1125.6 112.553 1132.56 112.553 1144.78C112.553 1157.11 116.5 1164.1 122.967 1164.1ZM173.123 1173.2C159.475 1173.2 151.166 1162.34 151.166 1144.78C151.166 1127.26 159.55 1116.51 173.123 1116.51C186.695 1116.51 195.042 1127.22 195.042 1144.74C195.042 1162.26 186.771 1173.2 173.123 1173.2ZM173.123 1164.1C179.589 1164.1 183.5 1157.15 183.5 1144.78C183.5 1132.52 179.552 1125.6 173.123 1125.6C166.731 1125.6 162.708 1132.56 162.708 1144.78C162.708 1157.11 166.656 1164.1 173.123 1164.1ZM223.278 1173.2C209.63 1173.2 201.321 1162.34 201.321 1144.78C201.321 1127.26 209.705 1116.51 223.278 1116.51C236.851 1116.51 245.197 1127.22 245.197 1144.74C245.197 1162.26 236.926 1173.2 223.278 1173.2ZM223.278 1164.1C229.745 1164.1 233.655 1157.15 233.655 1144.78C233.655 1132.52 229.707 1125.6 223.278 1125.6C216.886 1125.6 212.863 1132.56 212.863 1144.78C212.863 1157.11 216.811 1164.1 223.278 1164.1ZM61.6079 1318.06C61.6079 1307.8 69.8042 1300.54 81.6475 1300.54C93.0771 1300.54 100.935 1307.16 100.935 1316.22C100.935 1322.99 96.4233 1328.06 90.4453 1334.01L77.2109 1346.75V1346.98H101.687V1356H62.2471V1348.37L82.7002 1328.67C88.1895 1323.18 89.8813 1320.43 89.8813 1316.67C89.8813 1312.61 86.3096 1309.38 81.2715 1309.38C76.0078 1309.38 72.1353 1313.06 72.1353 1318.06V1318.25H61.6079V1318.06ZM129.735 1357.2C116.087 1357.2 107.778 1346.34 107.778 1328.78C107.778 1311.26 116.162 1300.51 129.735 1300.51C143.308 1300.51 151.654 1311.22 151.654 1328.74C151.654 1346.26 143.383 1357.2 129.735 1357.2ZM129.735 1348.1C136.202 1348.1 140.112 1341.15 140.112 1328.78C140.112 1316.52 136.164 1309.6 129.735 1309.6C123.343 1309.6 119.32 1316.56 119.32 1328.78C119.32 1341.11 123.268 1348.1 129.735 1348.1ZM179.89 1357.2C166.242 1357.2 157.933 1346.34 157.933 1328.78C157.933 1311.26 166.317 1300.51 179.89 1300.51C193.463 1300.51 201.81 1311.22 201.81 1328.74C201.81 1346.26 193.538 1357.2 179.89 1357.2ZM179.89 1348.1C186.357 1348.1 190.267 1341.15 190.267 1328.78C190.267 1316.52 186.319 1309.6 179.89 1309.6C173.499 1309.6 169.476 1316.56 169.476 1328.78C169.476 1341.11 173.423 1348.1 179.89 1348.1ZM222 1356V1312.16H221.774L207.938 1321.71V1311.48L221.962 1301.75H233.241V1356H222ZM56.8706 1502.06C56.8706 1491.8 65.0669 1484.54 76.9102 1484.54C88.3398 1484.54 96.1978 1491.16 96.1978 1500.22C96.1978 1506.99 91.686 1512.06 85.708 1518.01L72.4736 1530.75V1530.98H96.9497V1540H57.5098V1532.37L77.9629 1512.67C83.4521 1507.18 85.144 1504.43 85.144 1500.67C85.144 1496.61 81.5723 1493.38 76.5342 1493.38C71.2705 1493.38 67.3979 1497.06 67.3979 1502.06V1502.25H56.8706V1502.06ZM124.998 1541.2C111.35 1541.2 103.041 1530.34 103.041 1512.78C103.041 1495.26 111.425 1484.51 124.998 1484.51C138.57 1484.51 146.917 1495.22 146.917 1512.74C146.917 1530.26 138.646 1541.2 124.998 1541.2ZM124.998 1532.1C131.464 1532.1 135.375 1525.15 135.375 1512.78C135.375 1500.52 131.427 1493.6 124.998 1493.6C118.606 1493.6 114.583 1500.56 114.583 1512.78C114.583 1525.11 118.531 1532.1 124.998 1532.1ZM175.153 1541.2C161.505 1541.2 153.196 1530.34 153.196 1512.78C153.196 1495.26 161.58 1484.51 175.153 1484.51C188.726 1484.51 197.072 1495.22 197.072 1512.74C197.072 1530.26 188.801 1541.2 175.153 1541.2ZM175.153 1532.1C181.62 1532.1 185.53 1525.15 185.53 1512.78C185.53 1500.52 181.582 1493.6 175.153 1493.6C168.761 1493.6 164.738 1500.56 164.738 1512.78C164.738 1525.11 168.686 1532.1 175.153 1532.1ZM203.05 1502.06C203.05 1491.8 211.247 1484.54 223.09 1484.54C234.52 1484.54 242.377 1491.16 242.377 1500.22C242.377 1506.99 237.866 1512.06 231.888 1518.01L218.653 1530.75V1530.98H243.129V1540H203.689V1532.37L224.143 1512.67C229.632 1507.18 231.324 1504.43 231.324 1500.67C231.324 1496.61 227.752 1493.38 222.714 1493.38C217.45 1493.38 213.578 1497.06 213.578 1502.06V1502.25H203.05V1502.06ZM55.6675 1686.06C55.6675 1675.8 63.8638 1668.54 75.707 1668.54C87.1367 1668.54 94.9946 1675.16 94.9946 1684.22C94.9946 1690.99 90.4829 1696.06 84.5049 1702.01L71.2705 1714.75V1714.98H95.7466V1724H56.3066V1716.37L76.7598 1696.67C82.249 1691.18 83.9409 1688.43 83.9409 1684.67C83.9409 1680.61 80.3691 1677.38 75.3311 1677.38C70.0674 1677.38 66.1948 1681.06 66.1948 1686.06V1686.25H55.6675V1686.06ZM123.794 1725.2C110.146 1725.2 101.837 1714.34 101.837 1696.78C101.837 1679.26 110.222 1668.51 123.794 1668.51C137.367 1668.51 145.714 1679.22 145.714 1696.74C145.714 1714.26 137.442 1725.2 123.794 1725.2ZM123.794 1716.1C130.261 1716.1 134.171 1709.15 134.171 1696.78C134.171 1684.52 130.224 1677.6 123.794 1677.6C117.403 1677.6 113.38 1684.56 113.38 1696.78C113.38 1709.11 117.328 1716.1 123.794 1716.1ZM173.95 1725.2C160.302 1725.2 151.993 1714.34 151.993 1696.78C151.993 1679.26 160.377 1668.51 173.95 1668.51C187.522 1668.51 195.869 1679.22 195.869 1696.74C195.869 1714.26 187.598 1725.2 173.95 1725.2ZM173.95 1716.1C180.417 1716.1 184.327 1709.15 184.327 1696.78C184.327 1684.52 180.379 1677.6 173.95 1677.6C167.558 1677.6 163.535 1684.56 163.535 1696.78C163.535 1709.11 167.483 1716.1 173.95 1716.1ZM216.059 1700.31V1692.12H222.639C227.827 1692.12 231.324 1689.03 231.324 1684.56C231.324 1680.16 228.203 1677.27 222.563 1677.27C217.3 1677.27 213.803 1680.39 213.502 1685.12H203.05C203.464 1675.09 211.284 1668.54 223.052 1668.54C234.332 1668.54 242.039 1674.33 242.039 1683.02C242.039 1689.67 237.49 1694.49 230.835 1695.69V1695.91C238.918 1696.59 244.145 1701.48 244.145 1709C244.145 1718.74 235.309 1725.2 222.789 1725.2C210.532 1725.2 202.524 1718.47 201.998 1708.47H212.863C213.202 1713.06 216.961 1716.07 222.939 1716.07C228.617 1716.07 232.602 1712.87 232.602 1708.28C232.602 1703.32 228.88 1700.31 222.751 1700.31H216.059ZM54.9531 1870.06C54.9531 1859.8 63.1494 1852.54 74.9927 1852.54C86.4224 1852.54 94.2803 1859.16 94.2803 1868.22C94.2803 1874.99 89.7686 1880.06 83.7905 1886.01L70.5562 1898.75V1898.98H95.0322V1908H55.5923V1900.37L76.0454 1880.67C81.5347 1875.18 83.2266 1872.43 83.2266 1868.67C83.2266 1864.61 79.6548 1861.38 74.6167 1861.38C69.353 1861.38 65.4805 1865.06 65.4805 1870.06V1870.25H54.9531V1870.06ZM123.08 1909.2C109.432 1909.2 101.123 1898.34 101.123 1880.78C101.123 1863.26 109.507 1852.51 123.08 1852.51C136.653 1852.51 145 1863.22 145 1880.74C145 1898.26 136.728 1909.2 123.08 1909.2ZM123.08 1900.1C129.547 1900.1 133.457 1893.15 133.457 1880.78C133.457 1868.52 129.509 1861.6 123.08 1861.6C116.688 1861.6 112.666 1868.56 112.666 1880.78C112.666 1893.11 116.613 1900.1 123.08 1900.1ZM173.235 1909.2C159.587 1909.2 151.278 1898.34 151.278 1880.78C151.278 1863.26 159.663 1852.51 173.235 1852.51C186.808 1852.51 195.155 1863.22 195.155 1880.74C195.155 1898.26 186.883 1909.2 173.235 1909.2ZM173.235 1900.1C179.702 1900.1 183.612 1893.15 183.612 1880.78C183.612 1868.52 179.665 1861.6 173.235 1861.6C166.844 1861.6 162.821 1868.56 162.821 1880.78C162.821 1893.11 166.769 1900.1 173.235 1900.1ZM228.015 1908V1898.34H201.02V1888.67C205.757 1879.65 211.66 1870.14 222.789 1853.75H238.806V1889.24H245.874V1898.34H238.806V1908H228.015ZM210.983 1889.28V1889.58H228.241V1861.79H228.015C220.12 1873.37 215.382 1880.78 210.983 1889.28ZM56.0435 2054.06C56.0435 2043.8 64.2397 2036.54 76.083 2036.54C87.5127 2036.54 95.3706 2043.16 95.3706 2052.22C95.3706 2058.99 90.8589 2064.06 84.8809 2070.01L71.6465 2082.75V2082.98H96.1226V2092H56.6826V2084.37L77.1357 2064.67C82.625 2059.18 84.3169 2056.43 84.3169 2052.67C84.3169 2048.61 80.7451 2045.38 75.707 2045.38C70.4434 2045.38 66.5708 2049.06 66.5708 2054.06V2054.25H56.0435V2054.06ZM124.17 2093.2C110.522 2093.2 102.213 2082.34 102.213 2064.78C102.213 2047.26 110.598 2036.51 124.17 2036.51C137.743 2036.51 146.09 2047.22 146.09 2064.74C146.09 2082.26 137.818 2093.2 124.17 2093.2ZM124.17 2084.1C130.637 2084.1 134.547 2077.15 134.547 2064.78C134.547 2052.52 130.6 2045.6 124.17 2045.6C117.779 2045.6 113.756 2052.56 113.756 2064.78C113.756 2077.11 117.704 2084.1 124.17 2084.1ZM174.326 2093.2C160.678 2093.2 152.369 2082.34 152.369 2064.78C152.369 2047.26 160.753 2036.51 174.326 2036.51C187.898 2036.51 196.245 2047.22 196.245 2064.74C196.245 2082.26 187.974 2093.2 174.326 2093.2ZM174.326 2084.1C180.792 2084.1 184.703 2077.15 184.703 2064.78C184.703 2052.52 180.755 2045.6 174.326 2045.6C167.934 2045.6 163.911 2052.56 163.911 2064.78C163.911 2077.11 167.859 2084.1 174.326 2084.1ZM223.729 2093.2C212.074 2093.2 203.689 2086.29 203.351 2076.47H213.841C214.48 2081.06 218.541 2084.22 223.804 2084.22C229.745 2084.22 233.843 2080.08 233.843 2074.18C233.843 2068.16 229.745 2063.95 223.879 2063.95C219.781 2063.95 216.247 2065.83 214.367 2068.95H204.216L206.885 2037.75H241.4V2046.77H215.796L214.555 2061.62H214.781C216.999 2057.97 221.323 2055.68 226.85 2055.68C237.227 2055.68 244.671 2063.31 244.671 2073.88C244.671 2085.38 236.174 2093.2 223.729 2093.2ZM55.1411 2238.06C55.1411 2227.8 63.3374 2220.54 75.1807 2220.54C86.6104 2220.54 94.4683 2227.16 94.4683 2236.22C94.4683 2242.99 89.9565 2248.06 83.9785 2254.01L70.7441 2266.75V2266.98H95.2202V2276H55.7803V2268.37L76.2334 2248.67C81.7227 2243.18 83.4146 2240.43 83.4146 2236.67C83.4146 2232.61 79.8428 2229.38 74.8047 2229.38C69.541 2229.38 65.6685 2233.06 65.6685 2238.06V2238.25H55.1411V2238.06ZM123.268 2277.2C109.62 2277.2 101.311 2266.34 101.311 2248.78C101.311 2231.26 109.695 2220.51 123.268 2220.51C136.841 2220.51 145.188 2231.22 145.188 2248.74C145.188 2266.26 136.916 2277.2 123.268 2277.2ZM123.268 2268.1C129.735 2268.1 133.645 2261.15 133.645 2248.78C133.645 2236.52 129.697 2229.6 123.268 2229.6C116.876 2229.6 112.854 2236.56 112.854 2248.78C112.854 2261.11 116.801 2268.1 123.268 2268.1ZM173.423 2277.2C159.775 2277.2 151.466 2266.34 151.466 2248.78C151.466 2231.26 159.851 2220.51 173.423 2220.51C186.996 2220.51 195.343 2231.22 195.343 2248.74C195.343 2266.26 187.071 2277.2 173.423 2277.2ZM173.423 2268.1C179.89 2268.1 183.8 2261.15 183.8 2248.78C183.8 2236.52 179.853 2229.6 173.423 2229.6C167.032 2229.6 163.009 2236.56 163.009 2248.78C163.009 2261.11 166.957 2268.1 173.423 2268.1ZM224.218 2277.24C216.435 2277.24 210.006 2273.71 206.208 2267.24C203.201 2262.65 201.659 2256.52 201.659 2249.31C201.659 2231.33 210.382 2220.51 224.406 2220.51C234.745 2220.51 242.829 2226.63 244.333 2235.51H233.166C232.076 2231.9 228.579 2229.49 224.331 2229.49C216.773 2229.49 212.187 2236.75 212.45 2249H212.675C214.856 2243.7 220.195 2240.17 227.113 2240.17C237.415 2240.17 245.047 2247.76 245.047 2258.07C245.047 2269.23 236.362 2277.24 224.218 2277.24ZM224.105 2268.18C229.632 2268.18 233.993 2263.86 233.993 2258.4C233.993 2252.8 229.82 2248.7 224.143 2248.7C218.503 2248.7 214.217 2252.8 214.217 2258.29C214.217 2263.82 218.541 2268.18 224.105 2268.18ZM58.5625 2422.06C58.5625 2411.8 66.7588 2404.54 78.6021 2404.54C90.0317 2404.54 97.8896 2411.16 97.8896 2420.22C97.8896 2426.99 93.3779 2432.06 87.3999 2438.01L74.1655 2450.75V2450.98H98.6416V2460H59.2017V2452.37L79.6548 2432.67C85.144 2427.18 86.8359 2424.43 86.8359 2420.67C86.8359 2416.61 83.2642 2413.38 78.2261 2413.38C72.9624 2413.38 69.0898 2417.06 69.0898 2422.06V2422.25H58.5625V2422.06ZM126.689 2461.2C113.042 2461.2 104.732 2450.34 104.732 2432.78C104.732 2415.26 113.117 2404.51 126.689 2404.51C140.262 2404.51 148.609 2415.22 148.609 2432.74C148.609 2450.26 140.337 2461.2 126.689 2461.2ZM126.689 2452.1C133.156 2452.1 137.066 2445.15 137.066 2432.78C137.066 2420.52 133.119 2413.6 126.689 2413.6C120.298 2413.6 116.275 2420.56 116.275 2432.78C116.275 2445.11 120.223 2452.1 126.689 2452.1ZM176.845 2461.2C163.197 2461.2 154.888 2450.34 154.888 2432.78C154.888 2415.26 163.272 2404.51 176.845 2404.51C190.417 2404.51 198.764 2415.22 198.764 2432.74C198.764 2450.26 190.493 2461.2 176.845 2461.2ZM176.845 2452.1C183.312 2452.1 187.222 2445.15 187.222 2432.78C187.222 2420.52 183.274 2413.6 176.845 2413.6C170.453 2413.6 166.43 2420.56 166.43 2432.78C166.43 2445.11 170.378 2452.1 176.845 2452.1ZM207.224 2460L230.572 2415V2414.77H202.975V2405.75H241.776V2414.88L219.142 2460H207.224Z" fill="white"/>
</g>
</g>
<defs>
<linearGradient id="paint0_linear_9_145" x1="169" y1="-42" x2="169" y2="784" gradientUnits="userSpaceOnUse">
<stop offset="0.211666" stop-color="#737373" stop-opacity="0"/>
<stop offset="0.51" stop-color="#D9D9D9"/>
<stop offset="0.871666" stop-color="#737373" stop-opacity="0"/>
</linearGradient>
<clipPath id="clip0_9_145">
<rect width="299" height="638" fill="white"/>
</clipPath>
</defs>
</svg>
