<svg width="58" height="58" viewBox="0 0 58 58" fill="none" xmlns="http://www.w3.org/2000/svg">
<path fill-rule="evenodd" clip-rule="evenodd" d="M28.9682 10.7978C24.9684 6.81295 20.7954 4.83684 16.7876 4.54104C12.2537 4.20643 8.25395 6.04896 5.36965 8.95737C-0.300119 14.6745 -2.03006 25.0103 5.04969 32.1225C5.06979 32.1427 5.09029 32.1625 5.11117 32.1818L27.559 52.9461C28.353 53.6806 29.5783 53.6806 30.3722 52.9461L52.8202 32.1818L52.8683 32.1358C60.0524 25.0494 58.3149 14.7134 52.6218 8.9964C49.7271 6.0896 45.7144 4.24645 41.1716 4.57228C37.1547 4.86046 32.9718 6.82459 28.9682 10.7978ZM27.5561 19.0062C27.1609 18.0893 26.2738 17.4813 25.2761 17.4436C24.2784 17.4059 23.3479 17.9452 22.8846 18.8296L19.3392 25.5981H14.5622C13.1322 25.5981 11.9729 26.7573 11.9729 28.1874C11.9729 29.6173 13.1322 30.7766 14.5622 30.7766H20.9059C21.8692 30.7766 22.7527 30.242 23.1996 29.3888L24.951 26.0452L29.2737 36.0739C29.6323 36.9058 30.3996 37.4898 31.2971 37.6138C32.1945 37.7379 33.0915 37.3838 33.6623 36.6803L38.452 30.7766H43.4329C44.8626 30.7766 46.0222 29.6173 46.0222 28.1874C46.0222 26.7573 44.8626 25.5981 43.4329 25.5981H37.2184C36.4381 25.5981 35.6994 25.95 35.2077 26.556L32.336 30.0956L27.5561 19.0062Z" fill="white"/>
</svg>
