<svg width="96" height="96" viewBox="0 0 96 96" fill="none" xmlns="http://www.w3.org/2000/svg">
<g clip-path="url(#clip0_18_216)">
<path d="M93.3333 50.667C93.3397 45.3282 92.4008 40.0304 90.56 35.019C89.3333 49.3896 81.672 56.771 73.6667 53.3336C66.168 50.1123 71.2213 37.555 71.5947 31.563C72.224 21.4056 71.5627 9.77897 53.112 0.112305C60.7787 14.779 54 23.891 46.8907 24.4456C39.0027 25.0616 31.7787 17.667 34.4453 5.66697C25.8107 12.0296 25.56 22.739 28.224 29.667C31.0027 36.8883 28.112 42.8883 21.336 43.555C13.7627 44.3016 9.55467 35.4456 13.4347 21.3336C6.46938 29.5187 2.65137 39.9194 2.66667 50.667C2.66667 75.7043 22.9627 96.0003 48 96.0003C73.0373 96.0003 93.3333 75.7043 93.3333 50.667Z" fill="#F4900C"/>
<path d="M75.7174 63.997C76.112 72.221 68.888 75.445 65 73.8877C59.384 71.6397 60.8907 67.7783 59.4454 59.7783C58 51.7783 52.4454 46.2237 44.224 43.7783C50.224 60.6663 40.8987 66.8903 36.0107 68.0023C31.0187 69.1383 26.0027 67.9997 25.4294 57.317C22.4368 60.2872 20.0626 63.8211 18.4441 67.7144C16.8256 71.6078 15.9949 75.7833 16 79.9997C16 80.981 16.0614 81.9463 16.1467 82.9063C24.3334 90.997 35.5787 95.9997 48 95.9997C60.4214 95.9997 71.6667 90.997 79.8534 82.9063C79.9387 81.9463 80 80.981 80 79.9997C80 74.1677 78.4427 68.7037 75.7174 63.997Z" fill="#FFCC4D"/>
</g>
<defs>
<clipPath id="clip0_18_216">
<rect width="96" height="96" fill="white"/>
</clipPath>
</defs>
</svg>
