<svg width="1440" height="1024" viewBox="0 0 1440 1024" fill="none" xmlns="http://www.w3.org/2000/svg">
<g filter="url(#filter0_f_18_171)">
<path d="M433.28 162.594L1139.73 0H1483.18C1435.34 20.4852 1326.05 67.3631 1271.59 90.9926C1203.51 120.529 1029.95 179.127 969.231 213.904C908.515 248.681 1014.62 281.553 1271.59 395.889C1477.17 487.358 1578.85 754.778 1604 877.054C1529.79 860.539 1342.12 822.173 1185.11 800.83C988.857 774.151 939.18 809.881 282.332 1006.16C272.088 1009.22 262.151 1012.2 252.513 1015.11C246.341 1035.33 244.307 1057.23 244.307 1070.95C42.0545 1113.92 -232.211 1161.29 252.513 1015.11C258.276 996.23 267.644 978.818 282.332 970.905C320.357 950.42 614.742 827.508 244.307 877.054C-126.127 926.6 -12.6664 1032.84 -23.7059 1070.95C-32.5375 1101.44 -140.642 1070 -193.591 1050.46L-277 970.905C-196.453 929.934 127.903 819.791 780.948 706.979C1597.25 565.964 1139.73 575.016 1117.04 560.247C1094.35 545.479 833.692 592.643 179.911 507.367C-473.87 422.091 1098.03 196.754 856.384 152.448C704.882 124.67 538.715 142.285 433.28 162.594L361.448 179.127C379.71 174.009 404.182 168.199 433.28 162.594Z" fill="#1A1A1A"/>
</g>
<defs>
<filter id="filter0_f_18_171" x="-327" y="-50" width="1981" height="1214" filterUnits="userSpaceOnUse" color-interpolation-filters="sRGB">
<feFlood flood-opacity="0" result="BackgroundImageFix"/>
<feBlend mode="normal" in="SourceGraphic" in2="BackgroundImageFix" result="shape"/>
<feGaussianBlur stdDeviation="25" result="effect1_foregroundBlur_18_171"/>
</filter>
</defs>
</svg>
